<?xml version="1.0" encoding="UTF-8"?>
<svg width="40px" height="34px" viewBox="0 0 40 34" version="1.1" xmlns="http://www.w3.org/2000/svg" xmlns:xlink="http://www.w3.org/1999/xlink">
    <!-- Generator: Sketch 52.4 (67378) - http://www.bohemiancoding.com/sketch -->
    <title>Artboard</title>
    <desc>Created with Sketch.</desc>
    <g id="Artboard" stroke="none" stroke-width="1" fill="none" fill-rule="evenodd">
        <g id="noun_menu_1780117_000000" fill="#000000" fill-rule="nonzero">
            <path d="M3,0 C1.34315,0 0,1.30472534 0,2.91428488 C0,4.52374728 1.34315,5.82856976 3,5.82856976 L37,5.82856976 C38.65685,5.82856976 40,4.52374728 40,2.91428488 C40,1.30472534 38.65685,0 37,0 L3,0 Z M3,14.0857103 C1.34315,14.0857103 0,15.3904356 0,17.0000049 C0,18.6094673 1.34315,19.9142897 3,19.9142897 L37,19.9142897 C38.65685,19.9142897 40,18.6094673 40,17.0000049 C40,15.3904356 38.65685,14.0857103 37,14.0857103 L3,14.0857103 Z M3,28.1714302 C1.34315,28.1714302 0,29.4761556 0,31.0857151 C0,32.6951775 1.34315,34 3,34 L37,34 C38.65685,34 40,32.6951775 40,31.0857151 C40,29.4761556 38.65685,28.1714302 37,28.1714302 L3,28.1714302 Z" id="Shape"></path>
        </g>
    </g>
</svg>